<svg width="520" height="778" viewBox="0 0 520 778" fill="none" xmlns="http://www.w3.org/2000/svg">
<path d="M71.8126 573.282C69.9817 571.214 66.8217 571.023 64.7545 572.854C62.6874 574.685 62.4958 577.845 64.3268 579.912L71.8126 573.282ZM469.747 736.391L473.43 739.773L473.485 739.713L473.538 739.652L469.747 736.391ZM353.442 455.208L355.172 450.516L355.102 450.491L355.032 450.467L353.442 455.208ZM43.1066 325.589L39.2952 328.825L39.376 328.92L39.4614 329.011L43.1066 325.589ZM293.872 157.565L293.408 162.543L293.872 157.565ZM518.652 7.83182C519.664 5.2624 518.401 2.35933 515.832 1.34764C513.262 0.335955 510.359 1.59875 509.348 4.16818L518.652 7.83182ZM71.0229 587.282L74.4265 590.945L81.752 584.138L78.3485 580.475L71.0229 587.282ZM91.9966 594.663L88.4759 591.112L81.3752 598.154L84.8958 601.704L91.9966 594.663ZM99.0298 615.601L102.637 619.063L109.562 611.849L105.955 608.387L99.0298 615.601ZM120.39 621.938L116.708 618.555L109.944 625.921L113.626 629.303L120.39 621.938ZM128.375 642.566L132.127 645.871L138.736 638.366L134.984 635.062L128.375 642.566ZM149.903 647.927L146.083 644.701L139.632 652.343L143.453 655.568L149.903 647.927ZM158.823 668.265L162.712 671.407L168.997 663.629L165.108 660.486L158.823 668.265ZM180.581 672.705L176.622 669.652L170.514 677.57L174.473 680.624L180.581 672.705ZM190.384 692.596L194.415 695.554L200.33 687.491L196.299 684.533L190.384 692.596ZM212.308 695.962L208.2 693.112L202.499 701.327L206.607 704.178L212.308 695.962ZM223.158 715.32L227.347 718.051L232.808 709.674L228.62 706.943L223.158 715.32ZM245.246 717.413L240.972 714.819L235.783 723.367L240.057 725.962L245.246 717.413ZM257.326 736.026L261.692 738.462L266.565 729.73L262.199 727.294L257.326 736.026ZM279.493 736.485L275.028 734.234L270.526 743.163L274.99 745.415L279.493 736.485ZM293.091 754.007L297.66 756.037L301.72 746.899L297.151 744.869L293.091 754.007ZM315.223 752.295L310.544 750.534L307.021 759.893L311.701 761.654L315.223 752.295ZM330.801 768.112L335.593 769.542L338.452 759.959L333.66 758.53L330.801 768.112ZM352.415 763.294L347.519 762.278L345.488 772.07L350.383 773.085L352.415 763.294ZM370.459 776.194L375.434 776.688L376.423 766.737L371.447 766.243L370.459 776.194ZM390.589 766.933L385.591 767.091L385.907 777.086L390.904 776.928L390.589 766.933ZM411.319 774.71L416.23 773.77L414.349 763.948L409.438 764.889L411.319 774.71ZM427.577 759.705L422.917 761.517L426.54 770.837L431.2 769.026L427.577 759.705ZM449.726 759.697L453.956 757.031L448.623 748.571L444.394 751.237L449.726 759.697ZM459.304 739.787L455.626 743.174L462.399 750.531L466.078 747.144L459.304 739.787ZM480.16 731.532L483.216 727.575L475.302 721.463L472.246 725.42L480.16 731.532ZM483.507 709.059L480.908 713.33L489.45 718.529L492.05 714.258L483.507 709.059ZM501.897 695.703L503.971 691.153L494.872 687.005L492.798 691.555L501.897 695.703ZM499.852 673.083L498.373 677.859L507.925 680.818L509.404 676.042L499.852 673.083ZM514.28 655.526L515.101 650.594L505.237 648.951L504.416 653.883L514.28 655.526ZM506.278 634.272L506.161 639.271L516.158 639.505L516.276 634.507L506.278 634.272ZM515.242 613.405L514.636 608.442L504.71 609.654L505.316 614.617L515.242 613.405ZM501.524 595.306L502.837 600.13L512.486 597.504L511.173 592.679L501.524 595.306ZM504.217 572.76L502.247 568.165L493.056 572.105L495.026 576.701L504.217 572.76ZM486.058 559.096L488.61 563.396L497.21 558.293L494.658 553.993L486.058 559.096ZM482.852 536.597L479.806 532.631L471.876 538.723L474.922 542.689L482.852 536.597ZM461.981 527.624L465.433 531.24L472.666 524.334L469.213 520.718L461.981 527.624ZM454.086 506.343L450.305 503.072L443.762 510.635L447.544 513.906L454.086 506.343ZM431.826 501.455L435.87 504.395L441.749 496.306L437.705 493.366L431.826 501.455ZM420.494 481.827L416.242 479.196L410.98 487.699L415.231 490.331L420.494 481.827ZM397.774 480.324L402.19 482.669L406.879 473.837L402.463 471.492L397.774 480.324ZM383.891 462.331L379.345 460.249L375.18 469.34L379.726 471.423L383.891 462.331ZM361.217 463.532L365.865 465.375L369.55 456.078L364.902 454.236L361.217 463.532ZM345.911 447.58L341.123 446.141L338.244 455.717L343.032 457.157L345.911 447.58ZM324.954 452.093L329.787 453.374L332.348 443.707L327.515 442.427L324.954 452.093ZM309.1 437.698L304.25 436.48L301.814 446.178L306.663 447.397L309.1 437.698ZM288.309 442.819L293.161 444.027L295.578 434.324L290.726 433.115L288.309 442.819ZM272.399 428.512L267.553 427.279L265.088 436.97L269.934 438.203L272.399 428.512ZM251.56 433.437L256.393 434.719L258.957 425.053L254.124 423.771L251.56 433.437ZM235.918 418.807L231.104 417.455L228.4 427.083L233.214 428.435L235.918 418.807ZM214.948 423.128L219.736 424.569L222.618 414.993L217.83 413.553L214.948 423.128ZM199.874 407.935L195.119 406.387L192.023 415.896L196.778 417.444L199.874 407.935ZM178.723 411.307L183.435 412.98L186.782 403.557L182.07 401.883L178.723 411.307ZM164.478 395.334L159.82 393.516L156.183 402.831L160.841 404.649L164.478 395.334ZM143.164 397.389L147.753 399.373L151.722 390.194L147.132 388.21L143.164 397.389ZM130.103 380.435L125.6 378.263L121.255 387.269L125.758 389.442L130.103 380.435ZM108.69 380.711L113.084 383.096L117.855 374.308L113.46 371.922L108.69 380.711ZM97.3167 362.589L93.0604 359.965L87.8131 368.478L92.0694 371.102L97.3167 362.589ZM76.0077 360.5L80.0891 363.389L85.8657 355.226L81.7843 352.338L76.0077 360.5ZM67.0223 341.082L63.1619 337.904L56.8067 345.625L60.6671 348.803L67.0223 341.082ZM46.252 335.92L49.836 339.407L56.8087 332.239L53.2247 328.752L46.252 335.92ZM41.0213 315.07L37.967 311.112L30.0497 317.22L33.104 321.179L41.0213 315.07ZM21.8375 304.996L24.4817 309.24L32.9689 303.951L30.3246 299.708L21.8375 304.996ZM21.3874 283.36L19.2616 278.835L10.2104 283.086L12.3362 287.612L21.3874 283.36ZM5.17313 268.982L6.5951 273.776L16.1822 270.932L14.7602 266.139L5.17313 268.982ZM11.2781 248.298L10.8465 243.317L0.883831 244.18L1.31545 249.162L11.2781 248.298ZM2.17433 228.686L1.27834 233.605L11.1165 235.397L12.0125 230.478L2.17433 228.686ZM17.7732 213.835L20.1194 209.419L11.2886 204.727L8.94246 209.142L17.7732 213.835ZM21.1306 192.586L17.6427 196.168L24.8077 203.144L28.2956 199.562L21.1306 192.586ZM42.3409 188.113L46.5193 185.367L41.0272 177.01L36.8488 179.756L42.3409 188.113ZM54.2956 170.225L49.7443 172.295L53.8848 181.398L58.4361 179.328L54.2956 170.225ZM75.8765 172.606L80.6307 171.058L77.5339 161.549L72.7797 163.098L75.8765 172.606ZM91.5982 157.856L86.7324 159.006L89.0334 168.738L93.8993 167.588L91.5982 157.856ZM112.408 163.857L117.337 163.019L115.662 153.16L110.733 153.998L112.408 163.857ZM130.001 151.242L125.035 151.829L126.208 161.76L131.174 161.173L130.001 151.242ZM150.082 159.347L155.068 158.965L154.305 148.994L149.319 149.376L150.082 159.347ZM168.673 148.239L163.677 148.449L164.097 158.44L169.092 158.23L168.673 148.239ZM188.211 157.713L193.211 157.649L193.082 147.65L188.083 147.714L188.211 157.713ZM207.595 147.716L202.595 147.654L202.471 157.653L207.471 157.715L207.595 147.716ZM226.381 158.158L231.378 158.328L231.718 148.333L226.721 148.164L226.381 158.158ZM245.964 149.006L240.971 148.741L240.439 158.726L245.432 158.992L245.964 149.006ZM264.714 160.188L269.702 160.539L270.405 150.564L265.417 150.212L264.714 160.188ZM284.49 151.705L279.508 151.278L278.653 161.241L283.635 161.669L284.49 151.705ZM303.91 163.196L308.908 163.356L309.227 153.361L304.229 153.202L303.91 163.196ZM324.113 152.687L319.13 153.097L319.95 163.063L324.933 162.653L324.113 152.687ZM345.725 159.814L350.637 158.879L348.765 149.055L343.854 149.991L345.725 159.814ZM363.234 145.267L358.442 146.693L361.294 156.278L366.086 154.852L363.234 145.267ZM385.849 147.9L390.479 146.014L386.707 136.753L382.077 138.639L385.849 147.9ZM400.197 130.228L395.767 132.546L400.402 141.407L404.832 139.089L400.197 130.228ZM422.896 128.535L427.092 125.815L421.651 117.424L417.456 120.145L422.896 128.535ZM433.724 108.5L429.796 111.592L435.981 119.45L439.91 116.357L433.724 108.5ZM455.737 102.699L459.373 99.2662L452.508 91.9948L448.872 95.4273L455.737 102.699ZM462.808 81.0625L459.486 84.7992L466.959 91.4436L470.281 87.707L462.808 81.0625ZM483.477 71.529L486.471 67.525L478.463 61.5357L475.469 65.5397L483.477 71.529ZM486.811 49.0052L484.151 53.239L492.618 58.5586L495.278 54.3248L486.811 49.0052ZM505.671 36.252L507.995 31.825L499.141 27.1766L496.817 31.6035L505.671 36.252ZM505.496 13.4705L503.503 18.0558L512.673 22.0432L514.667 17.4579L505.496 13.4705ZM64.3268 579.912C66.3507 582.197 68.5872 584.661 71.0229 587.282L78.3485 580.475C75.9609 577.905 73.7783 575.501 71.8126 573.282L64.3268 579.912ZM84.8958 601.704C89.256 606.101 93.9794 610.753 99.0298 615.601L105.955 608.387C100.962 603.594 96.2975 599 91.9966 594.663L84.8958 601.704ZM113.626 629.303C118.342 633.633 123.265 638.066 128.375 642.566L134.984 635.062C129.927 630.608 125.056 626.222 120.39 621.938L113.626 629.303ZM143.453 655.568C148.442 659.78 153.57 664.021 158.823 668.265L165.108 660.486C159.913 656.289 154.839 652.094 149.903 647.927L143.453 655.568ZM174.473 680.624C179.684 684.643 184.992 688.641 190.384 692.596L196.299 684.533C190.974 680.628 185.73 676.677 180.581 672.705L174.473 680.624ZM206.607 704.178C212.06 707.963 217.582 711.684 223.158 715.32L228.62 706.943C223.129 703.363 217.687 699.695 212.308 695.962L206.607 704.178ZM240.057 725.962C245.775 729.432 251.536 732.795 257.326 736.026L262.199 727.294C256.522 724.125 250.866 720.825 245.246 717.413L240.057 725.962ZM274.99 745.415C281.011 748.451 287.05 751.323 293.091 754.007L297.151 744.869C291.269 742.255 285.378 739.453 279.493 736.485L274.99 745.415ZM311.701 761.654C318.085 764.057 324.458 766.22 330.801 768.112L333.66 758.53C327.558 756.709 321.407 754.622 315.223 752.295L311.701 761.654ZM350.383 773.085C357.133 774.486 363.833 775.536 370.459 776.194L371.447 766.243C365.202 765.622 358.85 764.629 352.415 763.294L350.383 773.085ZM390.904 776.928C397.832 776.709 404.648 775.988 411.319 774.71L409.438 764.889C403.32 766.06 397.029 766.73 390.589 766.933L390.904 776.928ZM431.2 769.026C437.583 766.545 443.77 763.45 449.726 759.697L444.394 751.237C438.987 754.645 433.374 757.452 427.577 759.705L431.2 769.026ZM466.078 747.144C468.587 744.833 471.039 742.377 473.43 739.773L466.065 733.009C463.859 735.412 461.604 737.669 459.304 739.787L466.078 747.144ZM473.538 739.652C475.83 736.987 478.038 734.279 480.16 731.532L472.246 725.42C470.232 728.026 468.135 730.598 465.957 733.131L473.538 739.652ZM492.05 714.258C495.731 708.209 499.02 702.015 501.897 695.703L492.798 691.555C490.089 697.497 486.988 703.341 483.507 709.059L492.05 714.258ZM509.404 676.042C511.497 669.287 513.129 662.438 514.28 655.526L504.416 653.883C503.34 660.34 501.814 666.75 499.852 673.083L509.404 676.042ZM516.276 634.507C516.44 627.488 516.102 620.443 515.242 613.405L505.316 614.617C506.117 621.171 506.432 627.732 506.278 634.272L516.276 634.507ZM511.173 592.679C509.352 585.989 507.038 579.34 504.217 572.76L495.026 576.701C497.665 582.857 499.826 589.067 501.524 595.306L511.173 592.679ZM494.658 553.993C491.162 548.102 487.23 542.296 482.852 536.597L474.922 542.689C479.063 548.08 482.771 553.556 486.058 559.096L494.658 553.993ZM469.213 520.718C464.536 515.82 459.496 511.024 454.086 506.343L447.544 513.906C452.721 518.385 457.53 522.963 461.981 527.624L469.213 520.718ZM437.705 493.366C432.268 489.414 426.532 485.564 420.494 481.827L415.231 490.331C421.066 493.942 426.595 497.653 431.826 501.455L437.705 493.366ZM402.463 471.492C396.522 468.338 390.333 465.282 383.891 462.331L379.726 471.423C385.996 474.294 392.011 477.264 397.774 480.324L402.463 471.492ZM364.902 454.236C361.713 452.972 358.47 451.732 355.172 450.516L351.713 459.899C354.936 461.087 358.104 462.299 361.217 463.532L364.902 454.236ZM355.032 450.467C352.144 449.499 349.099 448.539 345.911 447.58L343.032 457.157C346.139 458.091 349.082 459.02 351.853 459.949L355.032 450.467ZM327.515 442.427C321.678 440.881 315.52 439.311 309.1 437.698L306.663 447.397C313.065 449.005 319.177 450.563 324.954 452.093L327.515 442.427ZM290.726 433.115C284.771 431.632 278.653 430.102 272.399 428.512L269.934 438.203C276.212 439.8 282.35 441.335 288.309 442.819L290.726 433.115ZM254.124 423.771C248.133 422.182 242.056 420.531 235.918 418.807L233.214 428.435C239.406 430.174 245.53 431.838 251.56 433.437L254.124 423.771ZM217.83 413.553C211.868 411.758 205.875 409.889 199.874 407.935L196.778 417.444C202.857 419.423 208.922 421.315 214.948 423.128L217.83 413.553ZM182.07 401.883C176.184 399.792 170.312 397.612 164.478 395.334L160.841 404.649C166.779 406.968 172.747 409.184 178.723 411.307L182.07 401.883ZM147.132 388.21C141.389 385.727 135.705 383.138 130.103 380.435L125.758 389.442C131.493 392.209 137.303 394.855 143.164 397.389L147.132 388.21ZM113.46 371.922C107.964 368.939 102.576 365.831 97.3167 362.589L92.0694 371.102C97.4948 374.446 103.043 377.646 108.69 380.711L113.46 371.922ZM81.7843 352.338C76.695 348.736 71.7666 344.987 67.0223 341.082L60.6671 348.803C65.6102 352.871 70.7326 356.767 76.0077 360.5L81.7843 352.338ZM53.2247 328.752C51.0122 326.6 48.8536 324.405 46.7518 322.167L39.4614 329.011C41.6693 331.363 43.934 333.666 46.252 335.92L53.2247 328.752ZM46.918 322.353C44.9156 319.995 42.9452 317.564 41.0213 315.07L33.104 321.179C35.1249 323.798 37.1937 326.35 39.2952 328.825L46.918 322.353ZM30.3246 299.708C27.0123 294.392 23.9983 288.919 21.3874 283.36L12.3362 287.612C15.1305 293.561 18.3378 299.38 21.8375 304.996L30.3246 299.708ZM14.7602 266.139C12.9836 260.15 11.7875 254.177 11.2781 248.298L1.31545 249.162C1.89031 255.796 3.23086 262.435 5.17313 268.982L14.7602 266.139ZM12.0125 230.478C13.055 224.754 14.9309 219.184 17.7732 213.835L8.94246 209.142C5.59711 215.438 3.39359 221.992 2.17433 228.686L12.0125 230.478ZM28.2956 199.562C32.1833 195.568 36.8326 191.733 42.3409 188.113L36.8488 179.756C30.7885 183.739 25.5674 188.029 21.1306 192.586L28.2956 199.562ZM58.4361 179.328C63.7147 176.926 69.5158 174.678 75.8765 172.606L72.7797 163.098C66.0967 165.274 59.9443 167.656 54.2956 170.225L58.4361 179.328ZM93.8993 167.588C99.701 166.216 105.865 164.968 112.408 163.857L110.733 153.998C103.995 155.143 97.6217 156.432 91.5982 157.856L93.8993 167.588ZM131.174 161.173C137.203 160.461 143.502 159.85 150.082 159.347L149.319 149.376C142.61 149.889 136.173 150.513 130.001 151.242L131.174 161.173ZM169.092 158.23C175.247 157.971 181.618 157.798 188.211 157.713L188.083 147.714C181.397 147.8 174.929 147.976 168.673 148.239L169.092 158.23ZM207.471 157.715C213.6 157.791 219.902 157.938 226.381 158.158L226.721 148.164C220.172 147.941 213.798 147.793 207.595 147.716L207.471 157.715ZM245.432 158.992C251.706 159.326 258.132 159.724 264.714 160.188L265.417 150.212C258.78 149.744 252.296 149.343 245.964 149.006L245.432 158.992ZM283.635 161.669C286.858 161.945 290.115 162.237 293.408 162.543L294.335 152.586C291.019 152.278 287.737 151.984 284.49 151.705L283.635 161.669ZM293.408 162.543C296.867 162.865 300.37 163.083 303.91 163.196L304.229 153.202C300.889 153.095 297.589 152.889 294.335 152.586L293.408 162.543ZM324.933 162.653C331.792 162.089 338.738 161.146 345.725 159.814L343.854 149.991C337.21 151.257 330.615 152.152 324.113 152.687L324.933 162.653ZM366.086 154.852C372.685 152.888 379.285 150.574 385.849 147.9L382.077 138.639C375.814 141.19 369.522 143.396 363.234 145.267L366.086 154.852ZM404.832 139.089C410.928 135.901 416.959 132.385 422.896 128.535L417.456 120.145C411.781 123.824 406.018 127.183 400.197 130.228L404.832 139.089ZM439.91 116.357C445.306 112.109 450.59 107.558 455.737 102.699L448.872 95.4273C443.944 100.08 438.886 104.436 433.724 108.5L439.91 116.357ZM470.281 87.707C474.83 82.5907 479.236 77.1996 483.477 71.529L475.469 65.5397C471.396 70.9847 467.169 76.1572 462.808 81.0625L470.281 87.707ZM495.278 54.3248C498.908 48.5463 502.378 42.5233 505.671 36.252L496.817 31.6035C493.643 37.6478 490.302 43.4469 486.811 49.0052L495.278 54.3248ZM514.667 17.4579C516.038 14.3041 517.367 11.0955 518.652 7.83182L509.348 4.16818C508.105 7.32379 506.821 10.4244 505.496 13.4705L514.667 17.4579Z" fill="#FEFCFF"/>
</svg>
