<svg width="143" height="143" viewBox="0 0 143 143" fill="none" xmlns="http://www.w3.org/2000/svg">
<path d="M44.6992 0H60.0598V6.42308H51.1223V12.8462H60.0598V19.2692H44.6992V0Z" fill="#FEFCFF"/>
<path d="M63.1284 0H78.495V5.58892H69.5575V6.70312H78.495V19.5493H63.1284V13.6863H72.0659V12.5661H63.1284V0Z" fill="#FEFCFF"/>
<path d="M81.5693 0H96.924V5.58892H87.9865V6.70312H96.924V19.5493H81.5693V13.6863H90.5068V12.5661H81.5693V0Z" fill="#FEFCFF"/>
<path fill-rule="evenodd" clip-rule="evenodd" d="M71.4464 143L30.0717 131.512L17.875 28.1055H125.125L112.934 131.5L71.4464 143ZM41.9884 74.9141L43.1264 87.5935H87.081L85.6093 104.038L71.4643 107.864H71.4523L57.3311 104.05L56.4254 93.9391H43.6925L45.468 113.852L71.4464 121.061L97.4664 113.852L100.636 78.3163L100.946 74.9141L103.234 49.2397H39.7063L40.8622 61.925H89.3393L88.1833 74.9141H41.9884Z" fill="#FEFCFF"/>
</svg>
