<svg width="143" height="143" viewBox="0 0 143 143" fill="none" xmlns="http://www.w3.org/2000/svg">
<path fill-rule="evenodd" clip-rule="evenodd" d="M143 0H0V143H143V0ZM39.99 65.8H31.615C31.1817 65.8 30.815 65.95 30.515 66.25C30.2317 66.5333 30.09 66.8917 30.09 67.325V81.775C30.09 82.2083 30.2317 82.575 30.515 82.875C30.815 83.1583 31.1817 83.3 31.615 83.3H39.99C40.4234 83.3 40.7817 83.1667 41.065 82.9C41.365 82.6333 41.515 82.2917 41.515 81.875C41.515 81.4917 41.365 81.1583 41.065 80.875C40.7817 80.575 40.4234 80.425 39.99 80.425H33.215V75.8H38.865C39.2984 75.8 39.6567 75.675 39.94 75.425C40.24 75.1583 40.39 74.8167 40.39 74.4C40.39 73.9667 40.24 73.6167 39.94 73.35C39.6567 73.0667 39.2984 72.925 38.865 72.925H33.215V68.675H39.99C40.4234 68.675 40.7817 68.55 41.065 68.3C41.365 68.0333 41.515 67.6917 41.515 67.275C41.515 66.8417 41.365 66.4917 41.065 66.225C40.7817 65.9417 40.4234 65.8 39.99 65.8ZM55.3717 70.65C54.7383 70 53.755 69.675 52.4217 69.675C51.8717 69.675 51.3633 69.7667 50.8967 69.95C50.43 70.1167 50.005 70.3417 49.6217 70.625C49.2383 70.9083 48.9133 71.2167 48.6467 71.55C48.5567 71.6568 48.4734 71.7618 48.3967 71.8648V71.45C48.3967 71.0167 48.255 70.6583 47.9717 70.375C47.6884 70.075 47.33 69.925 46.8967 69.925C46.4633 69.925 46.105 70.075 45.8217 70.375C45.5383 70.6583 45.3967 71.0167 45.3967 71.45V81.775C45.3967 82.2083 45.5383 82.575 45.8217 82.875C46.105 83.1583 46.4633 83.3 46.8967 83.3C47.33 83.3 47.6884 83.1583 47.9717 82.875C48.255 82.575 48.3967 82.2083 48.3967 81.775V75.375C48.3967 74.825 48.505 74.3333 48.7217 73.9C48.955 73.45 49.2967 73.0917 49.7467 72.825C50.1967 72.5583 50.7383 72.425 51.3717 72.425C52.0217 72.425 52.5217 72.5583 52.8717 72.825C53.2217 73.0917 53.4633 73.45 53.5967 73.9C53.73 74.3333 53.7967 74.825 53.7967 75.375V81.775C53.7967 82.2083 53.9384 82.575 54.2217 82.875C54.505 83.1583 54.8633 83.3 55.2967 83.3C55.73 83.3 56.0883 83.1583 56.3717 82.875C56.655 82.575 56.7967 82.2083 56.7967 81.775V75.375C56.7967 74.825 56.905 74.3333 57.1217 73.9C57.355 73.45 57.6967 73.0917 58.1467 72.825C58.5967 72.5583 59.1384 72.425 59.7717 72.425C60.4217 72.425 60.9217 72.5583 61.2717 72.825C61.6217 73.0917 61.8633 73.45 61.9967 73.9C62.13 74.3333 62.1967 74.825 62.1967 75.375V81.775C62.1967 82.2083 62.3383 82.575 62.6217 82.875C62.905 83.1583 63.2634 83.3 63.6967 83.3C64.13 83.3 64.4883 83.1583 64.7717 82.875C65.055 82.575 65.1967 82.2083 65.1967 81.775V75.375C65.1967 74.325 65.08 73.375 64.8467 72.525C64.6133 71.6583 64.18 70.9667 63.5467 70.45C62.93 69.9333 62.0217 69.675 60.8217 69.675C60.0883 69.675 59.4217 69.8333 58.8217 70.15C58.2383 70.45 57.7383 70.825 57.3217 71.275C56.9332 71.679 56.6389 72.0612 56.4388 72.4218C56.2077 71.7209 55.852 71.1303 55.3717 70.65ZM81.7436 80.25C82.3602 79.2 82.6686 77.9917 82.6686 76.625C82.6686 75.2583 82.3602 74.0583 81.7436 73.025C81.1436 71.975 80.3269 71.1583 79.2936 70.575C78.2769 69.975 77.1352 69.675 75.8686 69.675C74.6019 69.675 73.4519 69.975 72.4186 70.575C71.4019 71.1583 70.5852 71.975 69.9686 73.025C69.3686 74.0583 69.0686 75.2583 69.0686 76.625C69.0686 77.9917 69.3686 79.2 69.9686 80.25C70.5852 81.2833 71.4019 82.0917 72.4186 82.675C73.4519 83.2583 74.6019 83.55 75.8686 83.55C77.1352 83.55 78.2769 83.2583 79.2936 82.675C80.3269 82.0917 81.1436 81.2833 81.7436 80.25ZM79.1436 74.425C79.4936 75.0417 79.6686 75.775 79.6686 76.625C79.6686 77.4583 79.4936 78.1917 79.1436 78.825C78.8102 79.4417 78.3519 79.925 77.7686 80.275C77.2019 80.625 76.5686 80.8 75.8686 80.8C75.1686 80.8 74.5269 80.625 73.9436 80.275C73.3769 79.925 72.9186 79.4417 72.5686 78.825C72.2352 78.1917 72.0686 77.4583 72.0686 76.625C72.0686 75.775 72.2352 75.0417 72.5686 74.425C72.9186 73.7917 73.3769 73.3 73.9436 72.95C74.5269 72.6 75.1686 72.425 75.8686 72.425C76.5686 72.425 77.2019 72.6 77.7686 72.95C78.3519 73.3 78.8102 73.7917 79.1436 74.425ZM87.8441 70.175H86.6941C86.2941 70.175 85.9608 70.3083 85.6941 70.575C85.4275 70.825 85.2941 71.1417 85.2941 71.525C85.2941 71.925 85.4275 72.2583 85.6941 72.525C85.9608 72.7917 86.2941 72.925 86.6941 72.925H87.8441V79.825C87.8441 80.6417 87.9691 81.2833 88.2191 81.75C88.4691 82.2167 88.7775 82.5667 89.1441 82.8C89.5275 83.0167 89.9275 83.1583 90.3441 83.225C90.7775 83.275 91.1691 83.3 91.5191 83.3C92.1025 83.3 92.6441 83.15 93.1441 82.85C93.6608 82.55 93.9191 82.1667 93.9191 81.7C93.9191 81.3167 93.8191 81.0167 93.6191 80.8C93.4358 80.5833 93.2275 80.475 92.9941 80.475C92.7775 80.475 92.5858 80.5167 92.4191 80.6C92.2525 80.6667 92.0691 80.7 91.8691 80.7C91.6858 80.7 91.5108 80.6667 91.3441 80.6C91.1941 80.5333 91.0691 80.425 90.9691 80.275C90.8858 80.125 90.8441 79.9333 90.8441 79.7V72.925H92.6191C93.0191 72.925 93.3525 72.8 93.6191 72.55C93.8858 72.2833 94.0191 71.9583 94.0191 71.575C94.0191 71.175 93.8858 70.8417 93.6191 70.575C93.3525 70.3083 93.0191 70.175 92.6191 70.175H90.8441V68.575C90.8441 68.1417 90.7025 67.7833 90.4191 67.5C90.1525 67.2 89.8025 67.05 89.3691 67.05C88.9358 67.05 88.5691 67.2 88.2691 67.5C87.9858 67.7833 87.8441 68.1417 87.8441 68.575V70.175ZM100.424 82.875C100.707 82.575 100.849 82.2083 100.849 81.775V71.45C100.849 71.0167 100.707 70.6583 100.424 70.375C100.14 70.075 99.782 69.925 99.3486 69.925C98.9153 69.925 98.557 70.075 98.2736 70.375C97.9903 70.6583 97.8486 71.0167 97.8486 71.45V81.775C97.8486 82.2083 97.9903 82.575 98.2736 82.875C98.557 83.1583 98.9153 83.3 99.3486 83.3C99.782 83.3 100.14 83.1583 100.424 82.875ZM98.1236 68.025C98.357 68.2083 98.757 68.3 99.3236 68.3C99.8903 68.3 100.299 68.2167 100.549 68.05C100.799 67.8667 100.924 67.5333 100.924 67.05V66.575C100.924 66.1083 100.807 65.7833 100.574 65.6C100.34 65.4167 99.932 65.325 99.3486 65.325C98.8153 65.325 98.4153 65.4167 98.1486 65.6C97.8986 65.7667 97.7736 66.0917 97.7736 66.575V67.05C97.7736 67.5167 97.8903 67.8417 98.1236 68.025ZM117.232 80.25C117.849 79.2 118.157 77.9917 118.157 76.625C118.157 75.2583 117.849 74.0583 117.232 73.025C116.632 71.975 115.815 71.1583 114.782 70.575C113.765 69.975 112.624 69.675 111.357 69.675C110.09 69.675 108.94 69.975 107.907 70.575C106.89 71.1583 106.074 71.975 105.457 73.025C104.857 74.0583 104.557 75.2583 104.557 76.625C104.557 77.9917 104.857 79.2 105.457 80.25C106.074 81.2833 106.89 82.0917 107.907 82.675C108.94 83.2583 110.09 83.55 111.357 83.55C112.624 83.55 113.765 83.2583 114.782 82.675C115.815 82.0917 116.632 81.2833 117.232 80.25ZM114.632 74.425C114.982 75.0417 115.157 75.775 115.157 76.625C115.157 77.4583 114.982 78.1917 114.632 78.825C114.299 79.4417 113.84 79.925 113.257 80.275C112.69 80.625 112.057 80.8 111.357 80.8C110.657 80.8 110.015 80.625 109.432 80.275C108.865 79.925 108.407 79.4417 108.057 78.825C107.724 78.1917 107.557 77.4583 107.557 76.625C107.557 75.775 107.724 75.0417 108.057 74.425C108.407 73.7917 108.865 73.3 109.432 72.95C110.015 72.6 110.657 72.425 111.357 72.425C112.057 72.425 112.69 72.6 113.257 72.95C113.84 73.3 114.299 73.7917 114.632 74.425ZM131.982 70.45C131.349 69.9333 130.416 69.675 129.182 69.675C128.616 69.675 128.091 69.7667 127.607 69.95C127.124 70.1167 126.691 70.3417 126.307 70.625C125.924 70.9083 125.591 71.2167 125.307 71.55C125.207 71.6617 125.116 71.7714 125.032 71.879V71.45C125.032 71.0167 124.891 70.6583 124.607 70.375C124.324 70.075 123.966 69.925 123.532 69.925C123.099 69.925 122.741 70.075 122.457 70.375C122.174 70.6583 122.032 71.0167 122.032 71.45V81.775C122.032 82.2083 122.174 82.575 122.457 82.875C122.741 83.1583 123.099 83.3 123.532 83.3C123.966 83.3 124.324 83.1583 124.607 82.875C124.891 82.575 125.032 82.2083 125.032 81.775V75.375C125.032 74.825 125.149 74.3333 125.382 73.9C125.632 73.45 125.982 73.0917 126.432 72.825C126.899 72.5583 127.466 72.425 128.132 72.425C128.816 72.425 129.341 72.5583 129.707 72.825C130.074 73.0917 130.324 73.45 130.457 73.9C130.607 74.3333 130.682 74.825 130.682 75.375V81.775C130.682 82.2083 130.824 82.575 131.107 82.875C131.391 83.1583 131.749 83.3 132.182 83.3C132.616 83.3 132.974 83.1583 133.257 82.875C133.541 82.575 133.682 82.2083 133.682 81.775V75.375C133.682 74.325 133.557 73.375 133.307 72.525C133.074 71.6583 132.632 70.9667 131.982 70.45ZM111.496 113.975C112.312 114.358 113.196 114.55 114.146 114.55C115.262 114.55 116.271 114.283 117.171 113.75C118.071 113.217 118.787 112.517 119.321 111.65C119.854 110.783 120.121 109.842 120.121 108.825V98.325C120.121 97.8917 119.979 97.5333 119.696 97.25C119.412 96.95 119.037 96.8 118.571 96.8C118.154 96.8 117.787 96.95 117.471 97.25C117.154 97.5333 116.996 97.8917 116.996 98.325V108.825C116.996 109.308 116.862 109.758 116.596 110.175C116.329 110.592 115.979 110.925 115.546 111.175C115.112 111.425 114.646 111.55 114.146 111.55C113.729 111.55 113.354 111.492 113.021 111.375C112.704 111.242 112.379 111.025 112.046 110.725C111.846 110.525 111.621 110.35 111.371 110.2C111.137 110.05 110.896 109.975 110.646 109.975C110.329 109.975 110.004 110.117 109.671 110.4C109.354 110.683 109.196 111.033 109.196 111.45C109.196 111.733 109.296 112.025 109.496 112.325C110.012 113.042 110.679 113.592 111.496 113.975ZM123.864 111.325C123.848 111.692 123.923 111.992 124.089 112.225C124.739 113.092 125.556 113.7 126.539 114.05C127.523 114.383 128.506 114.55 129.489 114.55C130.273 114.55 131.039 114.4 131.789 114.1C132.539 113.783 133.164 113.325 133.664 112.725C134.164 112.125 134.414 111.4 134.414 110.55C134.414 109.817 134.281 109.217 134.014 108.75C133.748 108.267 133.398 107.875 132.964 107.575C132.531 107.275 132.056 107.033 131.539 106.85C131.023 106.667 130.514 106.508 130.014 106.375C129.531 106.242 129.073 106.108 128.639 105.975C128.223 105.825 127.889 105.642 127.639 105.425C127.389 105.192 127.264 104.883 127.264 104.5C127.264 104.083 127.373 103.783 127.589 103.6C127.806 103.4 128.056 103.275 128.339 103.225C128.639 103.158 128.914 103.125 129.164 103.125C129.781 103.125 130.323 103.233 130.789 103.45C131.273 103.667 131.656 103.958 131.939 104.325C132.156 104.525 132.431 104.642 132.764 104.675C133.098 104.692 133.389 104.6 133.639 104.4C133.989 104.117 134.148 103.8 134.114 103.45C134.081 103.1 133.973 102.8 133.789 102.55C133.439 102.1 133.006 101.742 132.489 101.475C131.973 101.192 131.431 100.992 130.864 100.875C130.298 100.742 129.756 100.675 129.239 100.675C128.423 100.675 127.639 100.833 126.889 101.15C126.156 101.467 125.556 101.917 125.089 102.5C124.623 103.083 124.389 103.792 124.389 104.625C124.389 105.358 124.531 105.967 124.814 106.45C125.098 106.933 125.464 107.325 125.914 107.625C126.364 107.908 126.856 108.142 127.389 108.325C127.939 108.508 128.473 108.675 128.989 108.825C129.489 108.958 129.939 109.1 130.339 109.25C130.756 109.4 131.089 109.583 131.339 109.8C131.589 110.017 131.714 110.308 131.714 110.675C131.714 111.108 131.598 111.433 131.364 111.65C131.148 111.85 130.889 111.983 130.589 112.05C130.289 112.1 130.014 112.133 129.764 112.15C128.964 112.15 128.298 112.017 127.764 111.75C127.231 111.483 126.723 111.108 126.239 110.625C125.956 110.342 125.664 110.192 125.364 110.175C125.064 110.142 124.781 110.208 124.514 110.375C124.098 110.642 123.881 110.958 123.864 111.325Z" fill="#FEFCFF"/>
</svg>
