<svg width="143" height="143" viewBox="0 0 143 143" fill="none" xmlns="http://www.w3.org/2000/svg">
<path d="M30.2686 0H36.7155V6.36946H42.6142V0H49.0611V19.2812H42.6142V12.8283H36.7155V19.2812H30.2745V0H30.2686Z" fill="#FEFCFF"/>
<path d="M57.5337 6.39329H51.8613V0H69.6589V6.39329H63.9806V19.2812H57.5337V6.39329Z" fill="#FEFCFF"/>
<path d="M72.4829 0H79.2039L83.339 6.77462L87.4681 0H94.1891V19.2812H87.772V9.724L83.339 16.582H83.2258L78.7868 9.72996V19.2812H72.4829V0Z" fill="#FEFCFF"/>
<path d="M97.395 0H103.848V12.9117H112.905V19.2871H97.395V0Z" fill="#FEFCFF"/>
<path fill-rule="evenodd" clip-rule="evenodd" d="M30.0658 131.512L17.875 28.1055H125.125L112.928 131.5L71.4404 143L30.0658 131.512ZM54.7154 74.9082L53.5595 61.919H102.09L103.222 49.2397H39.7063L43.1264 87.5935H87.081L85.6093 104.038L71.4643 107.864H71.4523L57.3311 104.05L56.4254 93.9391H43.6865L45.4621 113.852L71.4404 121.061L97.4605 113.852L100.63 78.3163L100.94 74.9141H54.7154V74.9082Z" fill="#FEFCFF"/>
</svg>
