<svg width="143" height="143" viewBox="0 0 143 143" fill="none" xmlns="http://www.w3.org/2000/svg">
<path fill-rule="evenodd" clip-rule="evenodd" d="M0 0H143V143H0V0ZM109.318 119.882C102.686 119.882 98.9381 116.426 96.0602 111.719L85.1386 118.064C89.083 125.858 97.1447 131.804 109.627 131.804C122.39 131.804 131.894 125.179 131.894 113.077C131.894 101.858 125.447 96.8706 114.031 91.9669L110.67 90.5309C104.902 88.0284 102.406 86.4018 102.406 82.368C102.406 79.1088 104.908 76.6123 108.841 76.6123C112.696 76.6123 115.181 78.2389 117.486 82.368L127.949 75.653C123.522 67.8654 117.385 64.8922 108.841 64.8922C96.8408 64.8922 89.1605 72.5665 89.1605 82.648C89.1605 93.5816 95.5955 98.7594 105.296 102.889L108.656 104.33C114.787 107.012 118.44 108.644 118.44 113.25C118.44 117.099 114.883 119.882 109.318 119.882ZM57.2417 119.792C52.624 119.792 50.6995 116.634 48.5902 112.881L37.6507 119.506C40.8205 126.215 47.053 131.78 57.8078 131.78C69.7185 131.78 77.8754 125.447 77.8754 111.534V65.6549H64.4394V111.355C64.4394 118.07 61.6509 119.792 57.2358 119.792H57.2417Z" fill="#FEFCFF"/>
</svg>
