<svg width="143" height="143" viewBox="0 0 143 143" fill="none" xmlns="http://www.w3.org/2000/svg">
<g clip-path="url(#clip0_39_338)">
<path d="M68.9559 0C67.9072 0 67.1088 0 66.8228 0.0417083C66.5368 0.0834167 65.5417 0.166833 64.6539 0.232375C54.4703 1.21765 44.6157 4.37177 35.7525 9.48268C26.8894 14.5936 19.2231 21.5428 13.2693 29.8632C6.60648 39.1077 2.27511 49.8248 0.643556 61.1027C0.0987283 64.5401 -0.116749 68.0217 5.63405e-05 71.5C-0.117886 74.9883 0.0975926 78.4798 0.643556 81.9271C2.60718 95.1551 8.22675 107.572 16.8688 117.777C25.5109 127.982 36.8318 135.571 49.5555 139.687C54.4685 141.242 59.5276 142.29 64.6539 142.815C69.2189 143.054 73.7932 143.054 78.3581 142.815C87.3413 141.937 96.0803 139.383 104.122 135.284C105.349 134.652 105.588 134.486 105.421 134.348C105.254 134.211 100.058 127.234 93.7783 118.738L82.3442 103.294L68.0442 82.0939C60.1256 70.4394 53.6251 60.9061 53.5834 60.9061C53.5416 60.9061 53.4701 70.3143 53.4404 81.8139C53.8073 88.9629 53.7038 96.1284 53.1305 103.264C52.8864 103.82 52.4509 104.27 51.9031 104.533C51.4562 104.753 51.063 104.801 48.9537 104.801H46.5346L45.8792 104.372C45.4814 104.123 45.1583 103.771 44.9438 103.353L44.6876 102.722L44.7174 74.7175L44.7591 46.6835L45.1642 46.1175C45.4587 45.7813 45.8095 45.499 46.201 45.2833C46.7968 45.0033 46.9994 44.9735 49.4185 44.9735C52.2725 44.9735 52.7432 45.0867 53.488 45.897C53.6966 46.1235 61.4543 57.8137 70.7374 71.8813C80.1396 86.1297 89.5419 100.37 98.9442 114.603L110.265 131.751L110.861 131.375C116.311 127.754 121.253 123.419 125.554 118.487C134.564 108.177 140.408 95.4874 142.386 81.939C142.923 78.4869 143.129 74.9913 143 71.5C143.117 68.0157 142.901 64.5283 142.357 61.0848C140.391 47.8597 134.772 35.4462 126.131 25.2431C117.49 15.0401 106.172 7.45292 93.4506 3.33667C88.6037 1.79606 83.6127 0.751963 78.5547 0.220458C77.5537 0.119167 72.0959 0 68.9559 0ZM93.2003 43.0013C95.2679 43.0013 95.6313 43.0311 96.0961 43.2813C96.4289 43.4493 96.7251 43.6817 96.9675 43.9651C97.2099 44.2484 97.3937 44.577 97.5082 44.9318C97.6214 45.2952 97.6452 53.0649 97.6214 70.5526L97.5797 95.6849L93.1467 88.8924L88.7018 82.0999V63.8555C88.7018 52.046 88.7554 45.3846 88.8388 45.0867C88.9351 44.7102 89.1074 44.3574 89.3451 44.05C89.5829 43.7426 89.881 43.4871 90.2211 43.2992C90.817 43.0072 91.0017 42.9775 93.2003 42.9775V43.0013Z" fill="#FEFCFF"/>
</g>
<defs>
<clipPath id="clip0_39_338">
<rect width="143" height="143" fill="white"/>
</clipPath>
</defs>
</svg>
