<svg width="143" height="143" viewBox="0 0 143 143" fill="none" xmlns="http://www.w3.org/2000/svg">
<path d="M143 69.647C143 60.1732 131.137 51.194 112.946 45.6289C117.147 27.0926 115.282 12.3397 107.059 7.61476C105.067 6.49889 102.812 5.9372 100.529 5.98814V12.4827C101.87 12.4827 102.948 12.7508 103.854 13.2454C107.816 15.5215 109.538 24.173 108.197 35.3091C107.876 38.0499 107.351 40.9338 106.708 43.8772C100.616 42.4093 94.4337 41.3483 88.2012 40.7014C84.4883 35.5789 80.4376 30.7101 76.076 26.1273C85.5795 17.2971 94.4992 12.4589 100.565 12.4589V5.95834C92.5448 5.95834 82.0522 11.6724 71.4404 21.5811C60.8346 11.7379 50.336 6.07751 42.322 6.07751V12.5721C48.3578 12.5721 57.3073 17.3864 66.8108 26.1571C62.7293 30.4471 58.6479 35.3091 54.769 40.7014C48.5237 41.3412 42.3301 42.4122 36.2326 43.907C35.5593 40.9933 35.0648 38.1691 34.7133 35.4581C33.3428 24.316 35.035 15.6645 38.9735 13.3646C39.8434 12.8402 40.9814 12.6019 42.322 12.6019V6.1073C39.8791 6.1073 37.6567 6.63164 35.7381 7.73393C27.5454 12.4589 25.7102 27.176 29.9347 45.6587C11.8035 51.2596 0 60.203 0 69.647C0 79.1207 11.863 88.0999 30.0538 93.6591C25.8532 112.201 27.7182 126.954 35.9407 131.673C37.8354 132.781 40.0519 133.306 42.4948 133.306C50.5148 133.306 61.0074 127.592 71.6192 117.683C82.225 127.532 92.7176 133.187 100.738 133.187C103.038 133.235 105.31 132.672 107.321 131.554C115.514 126.835 117.349 112.118 113.125 93.6352C131.197 88.0701 143 79.0909 143 69.647ZM105.045 50.2049C103.913 54.1008 102.601 57.9421 101.113 61.7164C98.6769 56.9781 96.0022 52.3664 93.099 47.8991C97.24 48.5128 101.232 49.2695 105.051 50.2049H105.045ZM91.6988 81.2478C89.4286 85.1803 87.093 88.9162 84.6739 92.384C75.9285 93.1548 67.1328 93.1647 58.3857 92.4138C53.3685 85.247 48.9807 77.6595 45.2714 69.7363C48.975 61.7945 53.3442 54.1804 58.3321 46.9755C67.0753 46.2031 75.869 46.1912 84.6143 46.9398C87.0334 50.4075 89.3988 54.1136 91.669 58.0223C93.8855 61.8356 95.8994 65.7085 97.7345 69.6172C95.879 73.5733 93.8655 77.4533 91.6988 81.2478V81.2478ZM101.113 77.4583C102.686 81.3611 104.033 85.2697 105.135 89.0592C101.321 89.9947 97.2936 90.7812 93.1288 91.3889C96.02 86.881 98.6847 82.2317 101.113 77.4583V77.4583ZM71.5596 108.561C68.8485 105.76 66.1375 102.644 63.4562 99.2301C66.0779 99.3493 68.7592 99.4386 71.4702 99.4386C74.211 99.4386 76.9221 99.3791 79.5735 99.2301C76.9519 102.644 74.2408 105.76 71.5596 108.561ZM49.8713 91.3889C45.8538 90.8068 41.8654 90.0394 37.9188 89.089C38.9973 85.3293 40.3379 81.4504 41.8513 77.5775C43.049 79.9013 44.3062 82.2369 45.6766 84.5726C47.047 86.9023 48.4413 89.1784 49.8713 91.3889ZM71.4106 30.7331C74.1217 33.5335 76.8327 36.6497 79.514 40.0638C76.8923 39.9447 74.211 39.8553 71.5 39.8553C68.7592 39.8553 66.0481 39.9149 63.3967 40.0638C66.0183 36.6497 68.7294 33.5335 71.4106 30.7331ZM49.8415 47.905C46.9509 52.4032 44.2862 57.0425 41.8573 61.8058C40.3273 58.0071 38.985 54.1355 37.8354 50.2049C41.6488 49.2993 45.6766 48.5128 49.8415 47.905ZM23.4639 84.3938C13.1441 79.9966 6.47075 74.223 6.47075 69.647C6.47075 65.071 13.1441 59.2676 23.4639 54.9001C25.9664 53.8216 28.7073 52.8564 31.5375 51.9567C33.1998 57.6648 35.3865 63.6112 38.0916 69.7066C35.5377 75.4396 33.3777 81.3401 31.6268 87.3671C28.8589 86.51 26.1347 85.5178 23.4639 84.3938V84.3938ZM39.1463 126.043C35.184 123.778 33.462 115.115 34.8026 103.985C35.1244 101.244 35.6487 98.3542 36.2922 95.4108C42.0003 96.811 48.2387 97.8895 54.7988 98.5926C58.5119 103.715 62.5626 108.584 66.924 113.167C57.4205 121.997 48.5008 126.835 42.4353 126.835C41.2909 126.848 40.1612 126.577 39.1463 126.049V126.043ZM108.287 103.836C109.657 114.972 107.965 123.629 104.027 125.929C103.157 126.454 102.019 126.686 100.678 126.686C94.6422 126.686 85.6928 121.878 76.1892 113.101C80.2707 108.823 84.3521 103.955 88.231 98.5628C94.4763 97.923 100.67 96.8519 106.767 95.3572C107.441 98.3006 107.959 101.125 108.287 103.836V103.836ZM119.506 84.3938C117.004 85.4723 114.263 86.4376 111.433 87.3373C109.651 81.2795 107.461 75.3493 104.879 69.5874C107.56 63.5278 109.711 57.6111 111.343 51.9269C114.233 52.8266 116.968 53.8216 119.536 54.9001C129.856 59.2973 136.529 65.071 136.529 69.647C136.499 74.223 129.826 80.0264 119.506 84.3938V84.3938Z" fill="#FEFCFF"/>
<path d="M71.4703 82.9698C75.0037 82.9698 78.3924 81.5661 80.891 79.0676C83.3895 76.5691 84.7931 73.1804 84.7931 69.647C84.7931 66.1135 83.3895 62.7248 80.891 60.2263C78.3924 57.7278 75.0037 56.3241 71.4703 56.3241C67.9369 56.3241 64.5481 57.7278 62.0496 60.2263C59.5511 62.7248 58.1475 66.1135 58.1475 69.647C58.1475 73.1804 59.5511 76.5691 62.0496 79.0676C64.5481 81.5661 67.9369 82.9698 71.4703 82.9698V82.9698Z" fill="#FEFCFF"/>
</svg>
