<svg width="143" height="143" viewBox="0 0 143 143" fill="none" xmlns="http://www.w3.org/2000/svg">
<g clip-path="url(#clip0_39_42)">
<path d="M67.4424 98.9649C67.3754 99.099 67.3084 99.2063 67.4424 98.9649V98.9649ZM123.105 79.5259C118.61 79.5259 114.177 80.5537 110.146 82.5423C108.828 79.8834 107.465 77.5596 107.241 75.8168C106.973 73.7835 106.683 72.577 106.995 70.1638C107.308 67.7507 108.716 64.3321 108.693 64.0863C108.671 63.8406 108.381 62.6116 105.498 62.5893C102.616 62.567 100.136 63.1479 99.8453 63.9076C99.3353 65.2956 98.9392 66.7229 98.6611 68.1752C98.1472 70.7895 92.9009 80.1292 89.9292 85.0001C88.9461 83.1009 88.1193 81.4251 87.9406 80.0845C87.6725 78.0512 87.382 76.8446 87.6948 74.4315C88.0076 72.0184 89.4153 68.5998 89.3929 68.354C89.3706 68.1082 89.0801 66.8793 86.2022 66.857C83.3244 66.8346 80.8397 67.4156 80.5493 68.1752C80.2588 68.9349 79.946 70.7224 79.3651 72.4429C78.7841 74.1634 71.7905 89.7146 69.9628 93.7589C69.0244 95.8145 68.22 97.4679 67.6391 98.5851C67.5497 98.7638 67.4827 98.8756 67.438 98.9649C67.505 98.8532 67.5497 98.7415 67.5497 98.7862C67.0581 99.747 66.7677 100.283 66.7677 100.283V100.306C66.3878 101.021 65.9633 101.669 65.7622 101.669C65.6281 101.669 65.3377 99.7917 65.8292 97.2221C66.8794 91.8149 69.3595 83.4137 69.3372 83.1232C69.3148 82.9668 69.8064 81.5145 67.7061 80.7324C65.6728 79.9951 64.9355 81.224 64.7567 81.224C64.578 81.224 64.4439 81.6709 64.4439 81.6709C64.4439 81.6709 66.7006 72.1971 60.1092 72.1971C55.998 72.1971 50.278 76.7106 47.4671 80.7995C45.702 81.7602 41.8812 83.8382 37.8593 86.0502L33.2342 88.5974C33.1224 88.4857 33.0331 88.374 32.9213 88.2623C24.9223 79.727 10.1575 73.6941 10.7832 62.2318C11.0066 58.0535 12.4589 47.0827 39.1776 33.7659C61.0745 22.8621 78.5786 25.8562 81.595 32.5146C85.9296 42.0107 72.2329 59.6846 49.4959 62.2318C40.8266 63.1926 36.2729 59.841 35.1334 58.5898C33.9492 57.2715 33.7704 57.2045 33.3235 57.4502C32.5862 57.8524 33.0554 59.0143 33.3235 59.707C33.9938 61.4721 36.7868 64.6002 41.546 66.1643C45.7243 67.5273 55.8862 68.287 68.1708 63.5277C81.9748 58.2099 92.7221 43.396 89.5672 30.9952C86.3586 18.3934 65.4628 14.2598 45.7064 21.2757C33.9313 25.454 21.1998 32.0231 12.0433 40.5807C1.16194 50.7695 -0.576404 59.6399 0.138596 63.349C2.68578 76.5095 20.8244 85.0895 28.0817 91.4351L27.0762 91.9937C23.4342 93.8035 9.60788 101.043 6.1446 108.684C2.23444 117.354 6.79256 123.565 9.78216 124.414C19.1218 127.006 28.6805 122.336 33.8196 114.673C38.9586 107.009 38.333 96.9987 35.9646 92.4406C35.9422 92.3735 35.8975 92.3288 35.8752 92.2618C38.5563 90.6738 41.2602 89.1244 43.986 87.6143C43.0922 90.0274 42.4442 92.9321 42.1091 97.1328C41.7069 102.048 43.7402 108.416 46.3767 110.919C47.5386 112.014 48.9418 112.036 49.8177 112.036C52.9011 112.036 54.2864 109.489 55.8282 106.45C57.7274 102.741 59.4032 98.4287 59.4032 98.4287C59.4032 98.4287 57.3028 110.092 63.0452 110.092C65.1455 110.092 67.2458 107.389 68.1842 106.003V106.026C68.1842 106.026 68.2289 105.936 68.3407 105.757C68.5641 105.422 68.6758 105.221 68.6758 105.221V105.154C69.5249 103.702 71.3794 100.373 74.1724 94.876C77.7921 87.7707 81.2509 78.9002 81.2509 78.9002C81.586 80.8486 82.0508 82.7747 82.6362 84.6649C83.2618 86.7876 84.5801 89.1113 85.6302 91.3681C84.7812 92.5299 84.2673 93.2003 84.2673 93.2003C84.2673 93.2181 84.2762 93.2315 84.2896 93.2449C83.6193 94.1387 82.8596 95.0995 82.0776 96.0379C79.2221 99.4342 75.8213 103.322 75.3745 104.439C74.8382 105.757 74.9723 106.741 76.0001 107.5C76.7598 108.081 78.1004 108.171 79.508 108.059C82.0776 107.88 83.8874 107.254 84.7588 106.852C86.3661 106.276 87.8852 105.479 89.2723 104.484C92.0652 102.428 93.7634 99.4788 93.607 95.591C93.5176 93.446 92.8249 91.301 91.9759 89.2901C92.2216 88.9326 92.4898 88.5527 92.7356 88.1729C95.6432 83.8344 98.2631 79.3097 100.578 74.6281C100.913 76.5765 101.374 78.5025 101.964 80.3928C102.5 82.2027 103.55 84.1912 104.511 86.1351C100.355 89.5091 97.7852 93.4192 96.896 95.9887C95.2425 100.748 96.5385 102.893 98.9739 103.385C100.069 103.608 101.633 103.094 102.795 102.602C104.52 102.026 106.146 101.19 107.616 100.122C110.409 98.0667 113.113 95.1844 112.93 91.2742C112.863 89.5091 112.371 87.7439 111.723 86.0458C115.231 84.5711 119.789 83.7667 125.599 84.437C138.04 85.8894 140.475 93.665 140.006 96.9048C139.537 100.145 136.923 101.955 136.051 102.491C135.18 103.027 134.912 103.228 134.979 103.63C135.09 104.211 135.493 104.189 136.23 104.055C137.258 103.876 142.754 101.418 143 95.4078C143.358 87.8109 136.051 79.4544 123.114 79.5214L123.105 79.5259ZM27.2103 111.857C23.099 116.348 17.3388 118.047 14.8587 116.617C12.1997 115.07 13.2499 108.461 18.3175 103.675C21.4009 100.77 25.3781 98.0891 28.0147 96.4356C28.6179 96.0781 29.4893 95.5419 30.5618 94.8939C30.649 94.838 30.7384 94.7859 30.83 94.7375C31.0311 94.6034 31.2545 94.4917 31.4779 94.3577C33.328 101.15 31.545 107.138 27.2103 111.853V111.857ZM57.2313 91.4351C55.8013 94.9431 52.7894 103.881 50.9527 103.411C49.3887 103.009 48.4279 96.1943 50.6399 89.4912C51.7571 86.1173 54.1256 82.0954 55.5332 80.5313C57.7899 78.0065 60.2701 77.2021 60.851 78.2076C61.6331 79.5259 58.1251 89.2454 57.2313 91.4351ZM82.0329 103.277C81.4296 103.59 80.871 103.791 80.6029 103.635C80.4018 103.523 80.8487 103.099 80.8487 103.099C80.8487 103.099 83.9545 99.7693 85.1834 98.2499C85.8984 97.3562 86.7251 96.306 87.6188 95.1442C87.6188 95.2559 87.6412 95.3676 87.6412 95.5017C87.6144 99.5012 83.7712 102.205 82.0284 103.277H82.0329ZM101.159 98.9202C100.712 98.6074 100.779 97.5573 102.276 94.2951C102.857 93.0215 104.198 90.8765 106.522 88.8209C106.785 89.5984 106.928 90.4118 106.946 91.234C106.924 96.2613 103.326 98.1382 101.159 98.9202Z" fill="#FEFCFF"/>
</g>
<defs>
<clipPath id="clip0_39_42">
<rect width="143" height="143" fill="white"/>
</clipPath>
</defs>
</svg>
